<svg width="1200" height="520" viewBox="0 0 1200 520" fill="none" xmlns="http://www.w3.org/2000/svg">
  <defs>
    <linearGradient id="bg" x1="0" y1="0" x2="1200" y2="520" gradientUnits="userSpaceOnUse"><stop stop-color="#FFFFFF"/><stop offset="1" stop-color="#F5F9FF"/></linearGradient>
    <filter id="shadow" x="-20%" y="-20%" width="140%" height="160%"><feDropShadow dx="0" dy="12" stdDeviation="16" flood-color="#1D4ED8" flood-opacity="0.08"/></filter>
    <pattern id="grid" width="40" height="40" patternUnits="userSpaceOnUse"><path d="M40 0H0V40" fill="none" stroke="#2563EB" stroke-opacity="0.06"/></pattern>
  </defs>
  <rect width="1200" height="520" rx="24" fill="url(#bg)"/><rect width="1200" height="520" rx="24" fill="url(#grid)"/>
  <rect x="0.75" y="0.75" width="1198.5" height="518.5" rx="23.25" stroke="#BFDBFE" stroke-width="1.5"/>
  <text x="54" y="58" fill="#0F172A" font-family="Inter,Arial,sans-serif" font-size="30" font-weight="800">MUSIC &amp; BEATS</text>
  <text x="54" y="89" fill="#334155" font-family="Inter,Arial,sans-serif" font-size="18">Browser music workstation for desktop and tablet</text>
  <text x="54" y="115" fill="#64748B" font-family="ui-monospace,SFMono-Regular,Menlo,monospace" font-size="13" letter-spacing="1.1">PLAY / RECORD / LOOP / SAVE / PERFORM</text>
  <g transform="translate(54 146)" filter="url(#shadow)">
    <rect width="430" height="328" rx="24" fill="#FFFFFF" stroke="#BFDBFE" stroke-width="2"/>
    <text x="26" y="44" fill="#0F172A" font-family="Inter,Arial,sans-serif" font-size="27" font-weight="800">Built to feel playable</text>
    <text x="26" y="80" fill="#334155" font-family="Inter,Arial,sans-serif" font-size="18">A local-first workstation for turning ideas into</text>
    <text x="26" y="106" fill="#334155" font-family="Inter,Arial,sans-serif" font-size="18">grooves, loops, and quick sketches — all inside</text>
    <text x="26" y="132" fill="#334155" font-family="Inter,Arial,sans-serif" font-size="18">the browser.</text>
    <g transform="translate(26 158)"><rect width="150" height="34" rx="17" fill="#EFF6FF" stroke="#93C5FD"/><text x="75" y="22" text-anchor="middle" fill="#1D4ED8" font-family="Inter,Arial,sans-serif" font-size="15" font-weight="700">Smart Keys</text></g>
    <g transform="translate(190 158)"><rect width="116" height="34" rx="17" fill="#EFF6FF" stroke="#93C5FD"/><text x="58" y="22" text-anchor="middle" fill="#1D4ED8" font-family="Inter,Arial,sans-serif" font-size="15" font-weight="700">Beats</text></g>
    <g transform="translate(26 202)"><rect width="118" height="34" rx="17" fill="#EFF6FF" stroke="#93C5FD"/><text x="59" y="22" text-anchor="middle" fill="#1D4ED8" font-family="Inter,Arial,sans-serif" font-size="15" font-weight="700">Guitar</text></g>
    <g transform="translate(158 202)"><rect width="106" height="34" rx="17" fill="#EFF6FF" stroke="#93C5FD"/><text x="53" y="22" text-anchor="middle" fill="#1D4ED8" font-family="Inter,Arial,sans-serif" font-size="15" font-weight="700">Bass</text></g>
    <g transform="translate(278 202)"><rect width="104" height="34" rx="17" fill="#EFF6FF" stroke="#93C5FD"/><text x="52" y="22" text-anchor="middle" fill="#1D4ED8" font-family="Inter,Arial,sans-serif" font-size="15" font-weight="700">Audio</text></g>
    <text x="26" y="270" fill="#0F172A" font-family="Inter,Arial,sans-serif" font-size="17">• phase-aligned loop recording and transport</text>
    <text x="26" y="298" fill="#0F172A" font-family="Inter,Arial,sans-serif" font-size="17">• local projects, timeline, and quick sketching</text>
  </g>
  <g transform="translate(516 136)" filter="url(#shadow)">
    <rect width="630" height="324" rx="26" fill="#FFFFFF" stroke="#BFDBFE" stroke-width="2"/><rect width="630" height="46" rx="26" fill="#F8FBFF"/>
    <circle cx="26" cy="23" r="6" fill="#0F172A"/><circle cx="48" cy="23" r="6" fill="#2563EB"/><circle cx="70" cy="23" r="6" fill="#93C5FD"/>
    <text x="96" y="29" fill="#334155" font-family="Inter,Arial,sans-serif" font-size="17" font-weight="700">Music &amp; Beats Workstation</text>
    <rect x="22" y="62" width="226" height="112" rx="18" fill="#F8FBFF" stroke="#DBEAFE"/>
    <text x="40" y="89" fill="#1D4ED8" font-family="Inter,Arial,sans-serif" font-size="16" font-weight="700">Smart Keys</text>
    <g transform="translate(38 108)"><rect width="24" height="38" rx="12" fill="#2563EB"/><rect x="30" width="24" height="38" rx="12" fill="#3B82F6"/><rect x="60" width="24" height="38" rx="12" fill="#60A5FA"/><rect x="90" width="24" height="38" rx="12" fill="#93C5FD"/><rect x="120" width="24" height="38" rx="12" fill="#2563EB"/><rect x="150" width="24" height="38" rx="12" fill="#3B82F6"/><rect x="180" width="24" height="38" rx="12" fill="#60A5FA"/></g>
    <rect x="266" y="62" width="342" height="112" rx="18" fill="#F8FBFF" stroke="#DBEAFE"/>
    <text x="284" y="89" fill="#1D4ED8" font-family="Inter,Arial,sans-serif" font-size="16" font-weight="700">Timeline</text>
    <rect x="284" y="107" width="304" height="16" rx="8" fill="#DBEAFE"/><rect x="284" y="138" width="92" height="14" rx="7" fill="#2563EB"/><rect x="389" y="138" width="136" height="14" rx="7" fill="#60A5FA"/><rect x="538" y="138" width="50" height="14" rx="7" fill="#93C5FD"/>
    <rect x="22" y="194" width="184" height="102" rx="18" fill="#F8FBFF" stroke="#DBEAFE"/><text x="40" y="222" fill="#1D4ED8" font-family="Inter,Arial,sans-serif" font-size="16" font-weight="700">Beats</text>
    <g transform="translate(40 242)"><rect width="14" height="14" rx="4" fill="#2563EB"/><rect x="20" width="14" height="14" rx="4" fill="#DBEAFE"/><rect x="40" width="14" height="14" rx="4" fill="#2563EB"/><rect x="60" width="14" height="14" rx="4" fill="#DBEAFE"/><rect x="80" width="14" height="14" rx="4" fill="#2563EB"/><rect x="100" width="14" height="14" rx="4" fill="#DBEAFE"/><rect x="120" width="14" height="14" rx="4" fill="#2563EB"/></g><text x="40" y="282" fill="#64748B" font-family="Inter,Arial,sans-serif" font-size="14">generate · edit · sync</text>
    <rect x="222" y="194" width="184" height="102" rx="18" fill="#F8FBFF" stroke="#DBEAFE"/><text x="240" y="222" fill="#1D4ED8" font-family="Inter,Arial,sans-serif" font-size="16" font-weight="700">Input &amp; FX</text><text x="240" y="250" fill="#334155" font-family="Inter,Arial,sans-serif" font-size="15">guitar · vocals</text><text x="240" y="274" fill="#64748B" font-family="Inter,Arial,sans-serif" font-size="14">monitor · process · record</text>
    <rect x="422" y="194" width="186" height="102" rx="18" fill="#F8FBFF" stroke="#DBEAFE"/><text x="440" y="222" fill="#1D4ED8" font-family="Inter,Arial,sans-serif" font-size="16" font-weight="700">Projects</text><text x="440" y="250" fill="#334155" font-family="Inter,Arial,sans-serif" font-size="15">save · reopen · rename</text><text x="440" y="274" fill="#64748B" font-family="Inter,Arial,sans-serif" font-size="14">keep building locally</text>
  </g>
  <text x="54" y="490" fill="#334155" font-family="Inter,Arial,sans-serif" font-size="17">Core stack: Web Audio + PWA + IndexedDB + realtime DSP, designed for responsive desktop and tablet use.</text>
</svg>