<svg width="1200" height="560" viewBox="0 0 1200 560" fill="none" xmlns="http://www.w3.org/2000/svg">
  <defs>
    <linearGradient id="bg" x1="0" y1="0" x2="1200" y2="560" gradientUnits="userSpaceOnUse"><stop stop-color="#FFFFFF"/><stop offset="1" stop-color="#F5F9FF"/></linearGradient>
    <pattern id="grid" width="40" height="40" patternUnits="userSpaceOnUse"><path d="M40 0H0V40" fill="none" stroke="#2563EB" stroke-opacity="0.06"/></pattern>
    <filter id="shadow" x="-20%" y="-20%" width="140%" height="160%"><feDropShadow dx="0" dy="10" stdDeviation="15" flood-color="#1D4ED8" flood-opacity="0.08"/></filter>
  </defs>
  <rect width="1200" height="560" rx="24" fill="url(#bg)"/><rect width="1200" height="560" rx="24" fill="url(#grid)"/>
  <rect x="0.75" y="0.75" width="1198.5" height="558.5" rx="23.25" stroke="#BFDBFE" stroke-width="1.5"/>
  <text x="54" y="56" fill="#0F172A" font-family="Inter,Arial,sans-serif" font-size="29" font-weight="800">PERSONAL BUILD LAB</text>
  <text x="54" y="88" fill="#334155" font-family="Inter,Arial,sans-serif" font-size="18">Selected products, experiments, and open-source systems I’ve been building.</text>
  <g transform="translate(54 124)" filter="url(#shadow)">
    <rect width="520" height="170" rx="22" fill="#FFFFFF" stroke="#93C5FD" stroke-width="2"/>
    <rect x="24" y="24" width="70" height="70" rx="20" fill="#EFF6FF"/><path d="M42 59C51 42 70 40 79 57C72 70 56 75 42 59Z" stroke="#1D4ED8" stroke-width="2.4"/><circle cx="61" cy="57" r="6" fill="#2563EB"/>
    <text x="116" y="52" fill="#0F172A" font-family="Inter,Arial,sans-serif" font-size="27" font-weight="800">Rhelo</text>
    <text x="116" y="78" fill="#1D4ED8" font-family="Inter,Arial,sans-serif" font-size="15" font-weight="700">OFFLINE-FIRST BIBLE STUDY SYSTEM</text>
    <text x="24" y="119" fill="#334155" font-family="Inter,Arial,sans-serif" font-size="17">Next.js + Tauri + Rust + SQLite + Whisper</text>
    <text x="24" y="146" fill="#64748B" font-family="Inter,Arial,sans-serif" font-size="16">Reading, original languages, research, speech, and PDF export.</text>
  </g>
  <g transform="translate(626 124)" filter="url(#shadow)">
    <rect width="520" height="170" rx="22" fill="#FFFFFF" stroke="#60A5FA" stroke-width="2"/>
    <rect x="24" y="24" width="70" height="70" rx="20" fill="#EFF6FF"/><path d="M40 67H78M47 51H71M55 36H63" stroke="#2563EB" stroke-width="5" stroke-linecap="round"/>
    <text x="116" y="52" fill="#0F172A" font-family="Inter,Arial,sans-serif" font-size="27" font-weight="800">Music &amp; Beats</text>
    <text x="116" y="78" fill="#1D4ED8" font-family="Inter,Arial,sans-serif" font-size="15" font-weight="700">BROWSER MUSIC WORKSTATION</text>
    <text x="24" y="119" fill="#334155" font-family="Inter,Arial,sans-serif" font-size="17">Web Audio + PWA + IndexedDB + realtime DSP</text>
    <text x="24" y="146" fill="#64748B" font-family="Inter,Arial,sans-serif" font-size="16">Smart chords, beats, looping, audio input, and project sessions.</text>
  </g>
  <g transform="translate(54 326)" filter="url(#shadow)">
    <rect width="520" height="170" rx="22" fill="#FFFFFF" stroke="#3B82F6" stroke-width="2"/>
    <rect x="24" y="24" width="70" height="70" rx="20" fill="#EFF6FF"/><path d="M42 71L55 47L67 60L79 39" stroke="#2563EB" stroke-width="3" stroke-linecap="round" stroke-linejoin="round"/><circle cx="79" cy="39" r="4" fill="#2563EB"/>
    <text x="116" y="52" fill="#0F172A" font-family="Inter,Arial,sans-serif" font-size="27" font-weight="800">TrialIQ</text>
    <text x="116" y="78" fill="#1D4ED8" font-family="Inter,Arial,sans-serif" font-size="15" font-weight="700">MULTILINGUAL CLINICAL TRIAL MATCHING</text>
    <text x="24" y="119" fill="#334155" font-family="Inter,Arial,sans-serif" font-size="17">Python + FastAPI + Streamlit + SQLAlchemy</text>
    <text x="24" y="146" fill="#64748B" font-family="Inter,Arial,sans-serif" font-size="16">Adaptive voice or text intake with geo-aware trial scoring.</text>
  </g>
  <g transform="translate(626 326)" filter="url(#shadow)">
    <rect width="520" height="170" rx="22" fill="#FFFFFF" stroke="#1D4ED8" stroke-width="2"/>
    <rect x="24" y="24" width="70" height="70" rx="20" fill="#EFF6FF"/><circle cx="59" cy="59" r="18" stroke="#2563EB" stroke-width="3"/><path d="M59 47V71M47 59H71" stroke="#2563EB" stroke-width="3" stroke-linecap="round"/>
    <text x="116" y="52" fill="#0F172A" font-family="Inter,Arial,sans-serif" font-size="27" font-weight="800">Sales Bro V3</text>
    <text x="116" y="78" fill="#1D4ED8" font-family="Inter,Arial,sans-serif" font-size="15" font-weight="700">FULL-STACK PROSPECTING PLATFORM</text>
    <text x="24" y="119" fill="#334155" font-family="Inter,Arial,sans-serif" font-size="17">React + Express + Prisma + Zustand + Turborepo</text>
    <text x="24" y="146" fill="#64748B" font-family="Inter,Arial,sans-serif" font-size="16">Prospecting UX, APIs, state management, and workflow automation.</text>
  </g>
  <text x="54" y="532" fill="#64748B" font-family="Inter,Arial,sans-serif" font-size="16">Plus dozens more experiments across AI, automation, native apps, data pipelines, and workflow tooling.</text>
</svg>